#!OML:ASF I:\Actors\actors\Patient Classification 2\Patient 1\Session 1\actor1.ASF
:FULLY-SPECIFIED
:DEGREES
293
root 1.20973 17.7682 3.18994 23.8667 -28.4123 -7.03262
lowerback 32.868 -0.0805258 -3.34945
upperback 6.64666 -1.79242 -2.99872
thorax -9.53007 -0.849494 -0.705847
lowerneck -14.8678 9.09924 11.8337
upperneck 17.083 11.6316 -9.78189
head 9.0965 5.27408 -3.74739
rclavicle 2.38542e-014 6.36111e-015
rhumerus -49.0417 25.9171 -97.0148
rradius 94.3403
rwrist 2.10015
rhand -17.8294 -70.5024
rfingers 7.12502
rthumb 8.43501 -259.686
lclavicle 2.38542e-014 6.36111e-015
lhumerus 9.30826 -4.78311 81.1612
lradius 67.2575
lwrist 83.1302
lhand -38.496 -2.69459
lfingers 7.12502
lthumb -11.5177 26.969
rfemur -19.461 16.5363 6.69498
rtibia -21.1002
rfoot 6.40086 -18.1273
rtoes -0.546584
lfemur 3.94441 15.2528 -17.6917
ltibia -42.6485
lfoot 17.441 17.5292
ltoes -8.41604
294
root 1.28628 17.7528 3.20062 24.0619 -28.9167 -7.38
lowerback 32.8493 0.0545796 -3.2652
upperback 6.60383 -1.61015 -3.07157
thorax -9.57671 -0.768491 -0.894684
lowerneck -14.8183 9.11061 11.9463
upperneck 17.0601 11.644 -9.8731
head 9.09461 5.28001 -3.79627
rclavicle 4.77083e-014 2.06736e-014
rhumerus -47.2988 26.3879 -96.567
rradius 94.1282
rwrist 2.2142
rhand -16.9227 -69.9393
rfingers 7.12502
rthumb 9.30991 -260.286
lclavicle 4.77083e-014 2.06736e-014
lhumerus 10.8142 -4.6641 80.5039
lradius 66.0759
lwrist 82.2184
lhand -38.5423 -3.00319
lfingers 7.12502
lthumb -11.5623 26.6579
rfemur -19.9268 16.6074 6.71086
rtibia -20.6636
rfoot 6.55179 -17.7788
rtoes -1.10003
lfemur 4.16965 15.5021 -17.7764
ltibia -43.1608
lfoot 17.6817 17.7649
ltoes -8.09821
295
root 1.35822 17.7443 3.22567 24.0907 -29.4389 -7.6714
lowerback 32.8504 0.187443 -3.19317
upperback 6.59185 -1.43167 -3.11543
thorax -9.59445 -0.689974 -1.04514
lowerneck -14.651 9.10151 12.1021
upperneck 17.0111 11.6818 -10.2124
head 9.0852 5.28079 -3.93786
rclavicle 5.24792e-014 9.54166e-015
rhumerus -46.526 27.1083 -96.1588
rradius 94.5691
rwrist 2.17348
rhand -15.8546 -70.626
rfingers 7.12502
rthumb 10.3404 -259.648
lclavicle 5.24792e-014 9.54166e-015
lhumerus 11.3981 -4.90624 79.9002
lradius 66.1215
lwrist 81.98
lhand -38.7618 -2.71784
lfingers 7.12502
lthumb -11.774 26.9312
rfemur -20.1987 16.6444 6.75747
rtibia -20.1835
rfoot 6.64095 -17.3579
rtoes -1.56176
lfemur 4.57416 15.6865 -17.8647
ltibia -43.5788
lfoot 17.8216 18.0273
ltoes -7.71835
296
root 1.42442 17.739 3.2515 24.253 -29.8486 -7.86551
lowerback 32.5933 0.276158 -3.18544
upperback 6.53898 -1.30565 -3.09545
thorax -9.55083 -0.633378 -1.07495
lowerneck -14.5751 9.09879 12.0632
upperneck 17.1767 11.7324 -10.3336
head 9.14021 5.28985 -3.96948
rclavicle 4.13472e-014 7.95139e-015
rhumerus -46.676 27.9894 -95.8442
rradius 95.4558
rwrist 1.85076
rhand -15.3518 -69.6124
rfingers 7.12502
rthumb 10.8254 -260.687
lclavicle 4.13472e-014 7.95139e-015
lhumerus 11.1521 -5.54888 79.4671
lradius 67.1866
lwrist 82.5088
lhand -38.6209 -3.08197
lfingers 7.12502
lthumb -11.6381 26.5748
rfemur -20.6691 16.6841 6.63283
rtibia -19.6428
rfoot 6.59484 -17.0985
rtoes -2.01259
lfemur 4.69381 15.8294 -18.0606
ltibia -43.888
lfoot 17.9738 18.187
ltoes -7.37674
297
root 1.48303 17.7367 3.28655 24.3627 -30.219 -8.03644
lowerback 32.3108 0.341907 -3.1546
upperback 6.48469 -1.20067 -3.09112
thorax -9.49926 -0.586705 -1.12556
lowerneck -14.5732 9.09599 11.8554
upperneck 17.4751 11.7486 -10.1076
head 9.21549 5.30067 -3.85759
rclavicle 9.54166e-015 -2.38542e-014
rhumerus -47.6008 28.6759 -95.592
rradius 96.9163
rwrist 2.18573
rhand -14.656 -70.735
rfingers 7.12502
rthumb 11.4965 -259.6
lclavicle 9.54166e-015 -2.38542e-014
lhumerus 10.3123 -6.28986 79.3175
lradius 68.8191
lwrist 82.8579
lhand -38.4775 -3.03575
lfingers 7.12502
lthumb -11.4998 26.6288
rfemur -21.0761 16.7715 6.49923
rtibia -19.045
rfoot 6.40682 -16.8781
rtoes -2.13058
lfemur 4.81715 15.9742 -18.2476
ltibia -44.0604
lfoot 18.0163 18.3886
ltoes -6.60642
298
root 1.53384 17.7387 3.32996 24.3526 -30.4992 -8.15853
lowerback 32.0652 0.351931 -3.08006
upperback 6.4748 -1.15477 -3.11106
thorax -9.41484 -0.568784 -1.20328
lowerneck -14.5233 9.08343 11.6941
upperneck 17.6405 11.7375 -9.89099
head 9.2368 5.30451 -3.76144
rclavicle -2.38542e-014 5.88403e-014
rhumerus -49.144 29.2598 -95.5942
rradius 98.2853
rwrist 1.08967
rhand -16.5597 -69.5135
rfingers 7.12502
rthumb 9.66016 -260.728
lclavicle -2.38542e-014 5.88403e-014
lhumerus 9.05776 -6.96945 79.4469
lradius 70.8036
lwrist 83.249
lhand -38.5887 -3.22803
lfingers 7.12502
lthumb -11.607 26.4305
rfemur -21.3245 16.9381 6.33031
rtibia -18.4426
rfoot 5.98737 -16.7828
rtoes -1.88224
lfemur 5.01831 16.0057 -18.3935
ltibia -44.1181
lfoot 17.9637 18.6294
ltoes -5.85036
299
root 1.57864 17.7484 3.37742 24.1586 -30.6496 -8.17507
lowerback 32.0118 0.29822 -2.97765
upperback 6.47287 -1.19342 -3.16274
thorax -9.40058 -0.589397 -1.29862
lowerneck -14.4302 9.09976 11.7304
upperneck 17.7371 11.7528 -9.82533
head 9.25293 5.32153 -3.74572
rclavicle -4.13472e-014 1.59028e-015
rhumerus -51.0221 29.5526 -95.6298
rradius 99.7517
rwrist 0.398607
rhand -16.916 -69.1559
rfingers 7.12502
rthumb 9.31644 -261.07
lclavicle -4.13472e-014 1.59028e-015
lhumerus 7.50312 -7.47391 79.8551
lradius 72.8858
lwrist 83.4184
lhand -38.8138 -3.63578
lfingers 7.12502
lthumb -11.8241 26.0104
rfemur -21.3555 17.0919 6.15178
rtibia -17.8272
rfoot 5.45754 -16.7311
rtoes -1.56164
lfemur 5.32143 15.9136 -18.5346
ltibia -44.0705
lfoot 17.9071 18.6899
ltoes -5.71122
300
root 1.6214 17.7602 3.42516 23.9398 -30.6856 -8.07185
lowerback 32.0003 0.180477 -2.84935
upperback 6.42149 -1.31109 -3.25704
thorax -9.46099 -0.64507 -1.42431
lowerneck -14.3284 9.11832 11.8504
upperneck 17.8787 11.7611 -9.78292
head 9.28934 5.33811 -3.75285
rclavicle -7.15625e-014 1.90833e-014
rhumerus -53.2188 29.5225 -95.7699
rradius 101.154
rwrist 0.212093
rhand -17.3912 -68.775
rfingers 7.12502
rthumb 8.85789 -261.431
lclavicle -7.15625e-014 1.90833e-014
lhumerus 5.67214 -7.76915 80.5466
lradius 74.9249
lwrist 83.1345
lhand -38.9765 -3.60849
lfingers 7.12502
lthumb -11.981 26.0286
rfemur -21.3769 17.1408 5.89892
rtibia -17.2069
rfoot 4.90887 -16.6663
rtoes -1.20745
lfemur 5.53883 15.7092 -18.7572
ltibia -43.9652
lfoot 17.8342 18.6796
ltoes -5.50439
301
root 1.66316 17.771 3.47295 23.7055 -30.6632 -7.97933
lowerback 32.0665 0.011967 -2.67009
upperback 6.36383 -1.47879 -3.34318
thorax -9.56249 -0.7244 -1.55008
lowerneck -14.2801 9.13725 11.825
upperneck 18.0446 11.7843 -9.67149
head 9.33147 5.35662 -3.70906
rclavicle -4.13472e-014 -2.06736e-014
rhumerus -55.5854 29.333 -96.0667
rradius 102.425
rwrist 0.194748
rhand -17.732 -68.3528
rfingers 7.12502
rthumb 8.52898 -261.839
lclavicle -4.13472e-014 -2.06736e-014
lhumerus 3.62164 -7.96792 81.4497
lradius 76.7059
lwrist 82.2999
lhand -38.5105 -4.22149
lfingers 7.12502
lthumb -11.5317 25.4413
rfemur -21.3415 17.2491 5.62824
rtibia -16.6379
rfoot 4.31911 -16.6422
rtoes -0.979781
lfemur 5.76901 15.4501 -18.9395
ltibia -43.8451
lfoot 17.7097 18.7604
ltoes -5.09516
302
root 1.70177 17.7788 3.52136 23.4916 -30.6893 -7.9446
lowerback 32.0945 -0.157379 -2.47392
upperback 6.37611 -1.64015 -3.43664
thorax -9.57349 -0.803302 -1.69492
lowerneck -14.1711 9.18764 11.8341
upperneck 17.9381 11.8662 -9.71985
head 9.28839 5.39514 -3.71795
rclavicle -1.11319e-014 -2.70347e-014
rhumerus -57.852 29.0177 -96.4397
rradius 103.513
rwrist 0.115278
rhand -17.6234 -68.0098
rfingers 7.12502
rthumb 8.63374 -262.187
lclavicle -1.11319e-014 -2.70347e-014
lhumerus 1.6225 -7.82205 82.3635
lradius 78.8223
lwrist 82.5747
lhand -38.5028 -3.77586
lfingers 7.12502
lthumb -11.5242 25.8873
rfemur -21.276 17.3616 5.42713
rtibia -16.1472
rfoot 3.83083 -16.5699
rtoes -0.69174
lfemur 6.03545 15.2904 -19.0898
ltibia -43.7517
lfoot 17.6027 18.8233
ltoes -4.88895
303
root 1.73673 17.7808 3.55859 23.4238 -30.6496 -7.84194
lowerback 31.6528 -0.342038 -2.30259
upperback 6.88705 -1.80331 -3.47537
thorax -9.57982 -0.907763 -1.91301
lowerneck -13.8431 9.27848 12.2379
upperneck 17.25 12.0091 -10.2819
head 9.0749 5.45512 -3.96226
rclavicle -1.90833e-014 -4.77083e-015
rhumerus -59.7862 28.5186 -96.7865
rradius 104.323
rwrist 0.0358622
rhand -17.4048 -67.5798
rfingers 7.12502
rthumb 8.84471 -262.626
lclavicle -1.90833e-014 -4.77083e-015
lhumerus -0.120944 -7.80424 83.0683
lradius 80.868
lwrist 83.4088
lhand -39.0657 -3.80992
lfingers 7.12502
lthumb -12.067 25.8221
rfemur -21.3833 17.3694 5.14483
rtibia -15.7444
rfoot 3.41438 -16.5609
rtoes -0.223693
lfemur 6.07748 15.1965 -19.3457
ltibia -43.7243
lfoot 17.5553 18.8133
ltoes -4.4665
304
root 1.76969 17.7799 3.59182 23.3958 -30.5475 -7.80888
lowerback 31.4773 -0.528881 -2.11459
upperback 7.00349 -1.97575 -3.54785
thorax -9.37459 -0.993962 -2.0382
lowerneck -13.4302 9.38432 12.7948
upperneck 16.3484 12.1695 -11.0299
head 8.80289 5.52336 -4.29303
rclavicle -3.18055e-014 -2.70347e-014
rhumerus -61.3997 27.9119 -97.1721
rradius 104.818
rwrist 0.0344156
rhand -17.3049 -67.3475
rfingers 7.12502
rthumb 8.94112 -262.862
lclavicle -3.18055e-014 -2.70347e-014
lhumerus -1.61684 -8.10189 83.5364
lradius 82.371
lwrist 83.9638
lhand -39.9597 -5.79317
lfingers 7.12502
lthumb -12.929 23.7863
rfemur -21.4401 17.3715 4.94265
rtibia -15.4498
rfoot 3.10448 -16.5899
rtoes -0.0508957
lfemur 6.13121 15.1206 -19.5218
ltibia -43.7723
lfoot 17.505 18.8325
ltoes -3.73302
305
root 1.80002 17.7767 3.61768 23.4458 -30.4087 -7.86623
lowerback 31.4388 -0.702787 -1.95931
upperback 7.04662 -2.14112 -3.54614
thorax -9.3163 -1.07371 -2.06306
lowerneck -13.4467 9.50353 12.9419
upperneck 16.0251 12.3155 -11.2186
head 8.73884 5.5881 -4.35599
rclavicle -6.36111e-015 1.11319e-014
rhumerus -62.7101 27.2583 -97.5318
rradius 104.986
rwrist 0.176502
rhand -17.2827 -67.3076
rfingers 7.12502
rthumb 8.96254 -262.903
lclavicle -6.36111e-015 1.11319e-014
lhumerus -2.89136 -8.00669 83.8637
lradius 83.5184
lwrist 83.9801
lhand -39.6797 -5.90663
lfingers 7.12502
lthumb -12.659 23.6897
rfemur -21.4861 17.4559 4.79122
rtibia -15.3149
rfoot 2.8682 -16.7516
rtoes -0.153418
lfemur 6.15631 15.0938 -19.6045
ltibia -43.9097
lfoot 17.6229 18.7753
ltoes -3.46085
